<?xml version="1.0" standalone="no"?>
<!DOCTYPE svg PUBLIC "-//W3C//DTD SVG 20010904//EN"
 "http://www.w3.org/TR/2001/REC-SVG-20010904/DTD/svg10.dtd">
<svg version="1.0" xmlns="http://www.w3.org/2000/svg"
 width="306.000000pt" height="146.000000pt" viewBox="0 0 306.000000 146.000000"
 preserveAspectRatio="xMidYMid meet">

<g transform="translate(0.000000,146.000000) scale(0.100000,-0.100000)"
fill="#000000" stroke="none">
<path d="M153 1298 c-29 -14 -47 -59 -38 -97 13 -62 10 -61 450 -61 l400 0
-433 -433 c-380 -380 -433 -437 -439 -469 -5 -32 -1 -41 25 -68 l30 -30 521 0
520 0 27 24 c39 33 39 89 0 122 l-27 24 -402 0 -402 0 426 428 c235 235 432
437 438 449 18 36 13 63 -18 94 l-29 29 -514 -1 c-337 0 -520 -4 -535 -11z"/>
<path d="M2001 993 c-19 -10 -44 -31 -55 -46 -20 -26 -21 -44 -24 -250 -3
-245 2 -268 61 -311 37 -27 131 -29 170 -3 57 37 62 61 62 302 0 239 -5 265
-59 300 -38 25 -115 29 -155 8z m103 -89 c24 -23 24 -415 0 -438 -20 -20 -58
-21 -74 -1 -17 20 -16 421 1 441 15 19 54 18 73 -2z"/>
<path d="M1230 685 l0 -315 135 0 135 0 0 45 0 45 -85 0 -85 0 0 90 0 90 65 0
65 0 0 45 0 45 -65 0 -65 0 0 90 0 90 85 0 85 0 0 45 0 45 -135 0 -135 0 0
-315z"/>
<path d="M1560 685 l0 -315 50 0 50 0 0 130 0 130 34 0 c53 0 66 -26 66 -136
0 -121 2 -124 59 -124 l46 0 -6 119 c-7 117 -23 174 -51 183 -9 3 -4 14 13 35
31 37 43 108 30 176 -18 96 -53 117 -203 117 l-88 0 0 -315z m184 209 c11 -11
16 -34 16 -76 0 -73 -17 -98 -67 -98 l-33 0 0 95 0 95 34 0 c19 0 42 -7 50
-16z"/>
<path d="M2260 955 l0 -45 50 0 50 0 0 -270 0 -270 50 0 50 0 0 270 0 270 50
0 50 0 0 45 0 45 -150 0 -150 0 0 -45z"/>
<path d="M2610 685 l0 -315 45 0 45 0 0 135 0 135 60 0 60 0 0 -135 0 -135 50
0 50 0 0 315 0 315 -50 0 -50 0 0 -135 0 -135 -60 0 -60 0 0 135 0 135 -45 0
-45 0 0 -315z"/>
</g>
</svg>
